<svg width="2000" height="2500" viewBox="0 0 2000 2500" fill="none" xmlns="http://www.w3.org/2000/svg">
<path d="M0 750H100V1750H0V750Z" fill="#FFFDEC"/>
<path d="M900 750H1000V1750H900V750Z" fill="#FFFDEC"/>
<path d="M1000.26 750H900.233L500.13 150L100.026 750H0L500.13 0L1000.26 750Z" fill="#FFFDEC"/>
<path d="M100 1500C100 1594.6 132.837 1681.52 187.733 1750H0V1500H100Z" fill="#FFFDEC"/>
<path d="M1000 1750H812.267C867.163 1681.52 900 1594.6 900 1500H1000V1750Z" fill="#FFFDEC"/>
<path d="M500 750C776.142 750 1000 973.858 1000 1250H900C900 1029.09 720.914 850 500 850C279.086 850 100 1029.09 100 1250H0C0 973.858 223.858 750 500 750Z" fill="#FFFDEC"/>
<path d="M1899.87 1100H1999.87V2100H1899.87V1100Z" fill="#FFFDEC"/>
<path d="M1943.33 1200C1970.84 1254.76 1990.22 1314.31 1999.87 1377.07V1417H1904.2C1896 1337.7 1869.27 1263.9 1828.42 1200H1943.33Z" fill="#FFFDEC"/>
<path d="M1999.87 2100C1999.87 2320.91 1820.78 2500 1599.87 2500C1378.96 2500 1199.87 2320.91 1199.87 2100H1299.87C1299.87 2265.69 1434.18 2400 1599.87 2400C1765.56 2400 1899.87 2265.69 1899.87 2100H1999.87Z" fill="#FFFDEC"/>
<path d="M2000 1096.22L1931.59 1284.16L1860.1 1258.14C1780.9 1086.51 1607.3 967.404 1405.87 967.404C1332.43 967.404 1262.69 983.238 1199.87 1011.68V805L2000 1096.22Z" fill="#FFFDEC"/>
</svg>
