<svg width="2088" height="2500" viewBox="0 0 2088 2500" fill="none" xmlns="http://www.w3.org/2000/svg">
<path d="M187.733 1750H0C54.896 1681.52 87.7334 1594.6 87.7334 1500H187.733V1750Z" fill="#FFFDEC"/>
<path d="M1288 1869H1475.73C1420.84 1937.48 1388 2024.4 1388 2119H1288V1869Z" fill="#FFFDEC"/>
<path d="M1088 1500C1088 1594.6 1120.84 1681.52 1175.73 1750H988V1500H1088Z" fill="#FFFDEC"/>
<path d="M88 750H188V1750H88V750Z" fill="#FFFDEC"/>
<path d="M988 750H1088V1750H988V750Z" fill="#FFFDEC"/>
<path d="M1088.26 750H988.233L588.13 150L188.026 750H88L588.13 0L1088.26 750Z" fill="#FFFDEC"/>
<path d="M188 1500C188 1594.6 220.837 1681.52 275.733 1750H88V1500H188Z" fill="#FFFDEC"/>
<path d="M1088 1750H900.267C955.163 1681.52 988 1594.6 988 1500H1088V1750Z" fill="#FFFDEC"/>
<path d="M588 750C864.142 750 1088 973.858 1088 1250H988C988 1029.09 808.914 850 588 850C367.086 850 188 1029.09 188 1250H88C88 973.858 311.858 750 588 750Z" fill="#FFFDEC"/>
<path d="M1987.87 1100H2087.87V2100H1987.87V1100Z" fill="#FFFDEC"/>
<path d="M2031.33 1200C2058.84 1254.76 2078.22 1314.31 2087.87 1377.07V1417H1992.2C1984 1337.7 1957.27 1263.9 1916.42 1200H2031.33Z" fill="#FFFDEC"/>
<path d="M2087.87 2100C2087.87 2320.91 1908.78 2500 1687.87 2500C1466.96 2500 1287.87 2320.91 1287.87 2100H1387.87C1387.87 2265.69 1522.18 2400 1687.87 2400C1853.56 2400 1987.87 2265.69 1987.87 2100H2087.87Z" fill="#FFFDEC"/>
<path d="M2088 1096.22L2019.59 1284.16L1948.1 1258.14C1868.9 1086.51 1695.3 967.404 1493.87 967.404C1420.43 967.404 1350.69 983.238 1287.87 1011.68V805L2088 1096.22Z" fill="#FFFDEC"/>
</svg>
